<svg xmlns="http://www.w3.org/2000/svg" width="405.890087890625px" height="122px" viewBox="47.054956054687494 14 405.890087890625 122" style="background: rgba(0, 0, 0, 0);" preserveAspectRatio="xMidYMid"><defs><linearGradient id="editing-shiny-gradient" x1="0.04322727117869957" x2="0.9567727288213004" y1="0.2966316784620999" y2="0.7033683215379001" gradientUnits="objectBoundingBox"><stop offset="0.0" stop-color="#ffb200"/><stop offset="0.5" stop-color="#e10057"/><stop offset="1.0" stop-color="#5A1A80"/></linearGradient><linearGradient id="editing-shiny-gradient2" x1="0" x2="0" y1="0" y2="1"><stop offset="0.2" stop-color="#fff" stop-opacity="0.8"/><stop offset="0.8" stop-color="#fff" stop-opacity="0"/></linearGradient><filter id="editing-shiny2" x="-100%" y="-100%" width="300%" height="300%"><feMorphology operator="erode" radius="2"/></filter><filter id="editing-shiny" x="-100%" y="-100%" width="300%" height="300%"><feFlood flood-color="#fff" result="flood"/><feConvolveMatrix in="SourceGraphic" result="conv" order="8,8" divisor="1" kernelMatrix="0 0 0 0 0 0 0 0 0 0 0 1 1 0 0 0 0 0 0 1 1 0 0 0 0 0 1 0 0 1 0 0 0 0 1 0 0 1 0 0 0 1 0 0 0 0 1 0 0 1 1 0 0 1 1 0 0 0 0 1 1 0 0 0 "/><feOffset dx="0" dy="4" in="conv" result="offset"/><feComposite operator="in" in="flood" in2="offset" result="comp"/><feGaussianBlur in="offset" stdDeviation="3" result="shadow"/><feColorMatrix in="shadow" type="matrix" values="0.7 0 0 0 0  0 0.7 0 0 0  0 0 0.7 0 0  0 0 0 0.3 0" result="dark-shadow"/><feOffset dx="0" dy="4" in="dark-shadow" result="offset-shadow"/><feOffset dx="0" dy="2" in="conv" result="offset-2"/><feComposite operator="out" in="offset" in2="offset-2" result="edge-diff"/><feGaussianBlur in="edge-diff" stdDeviation="1" result="edge-blur"/><feColorMatrix in="edge-blur" result="edge-shadow" type="matrix" values="0 0 0 0 0  0 0 0 0 0  0 0 0 0 0  0 0 0 0.5 0"/><feComposite operator="in" in="edge-shadow" in2="offset" result="edge-shadow-in"/><feOffset dx="0" dy="1" in="edge-shadow-in" result="edge-shadow-final"/><feMerge result="out"><feMergeNode in="offset-shadow"/><feMergeNode in="comp"/><feMergeNode in="edge-shadow-final"/><feMergeNode in="SourceGraphic"/></feMerge></filter></defs><g filter="url(#editing-shiny)"><g transform="translate(109.09543332457542, 98.68000030517578)"><path d="M30.21-33.92L30.21-33.92L30.21-33.92Q25.02-33.92 21.25-35.65L21.25-35.65L19.20-25.28L31.55-25.28L31.55-25.28Q31.55-21.89 29.86-19.74L29.86-19.74L29.86-19.74Q28.16-17.60 25.09-17.60L25.09-17.60L25.09-17.60Q21.76-17.60 18.69-18.82L18.69-18.82L18.69-18.82Q18.05-19.07 17.98-19.14L17.98-19.14L14.34 0L0.38 0L8.51-42.24L37.06-42.24L37.06-42.24Q37.06-38.34 35.23-36.13L35.23-36.13L35.23-36.13Q33.41-33.92 30.21-33.92ZM60.48-42.69L60.48-42.69L60.48-42.69Q76.16-42.69 76.16-31.62L76.16-31.62L76.16-31.62Q76.16-25.54 72.26-21.89L72.26-21.89L72.26-21.89Q68.42-18.24 61.70-18.24L61.70-18.24L61.70-18.24Q58.56-18.24 56.13-20.03L56.13-20.03L56.13-20.03Q54.98-20.80 54.21-21.82L54.21-21.82L54.21-21.82Q58.88-21.82 61.34-24.67L61.34-24.67L61.34-24.67Q63.81-27.52 63.81-33.09L63.81-33.09L63.81-33.09Q63.81-38.66 58.30-38.66L58.30-38.66L56.77-38.66L56.77-38.66Q56.38-38.66 56.06-38.59L56.06-38.59L48.70 0L34.82 0L42.69-41.92L42.69-41.92Q49.54-42.56 53.50-42.62L53.50-42.62L53.50-42.62Q57.47-42.69 60.48-42.69ZM81.60-31.17L81.60-31.17L81.60-31.17Q79.42-32.83 79.42-36.38L79.42-36.38L79.42-36.38Q79.42-39.94 81.76-41.79L81.76-41.79L81.76-41.79Q84.10-43.65 88.13-43.65L88.13-43.65L88.13-43.65Q90.69-43.65 96.77-42.75L96.77-42.75L101.12-42.11L101.12-42.11Q103.30-41.86 105.57-41.86L105.57-41.86L105.57-41.86Q107.84-41.86 109.38-42.82L109.38-42.82L109.38-42.82Q111.68-40.77 111.68-37.82L111.68-37.82L111.68-37.82Q111.68-34.88 109.06-32.77L109.06-32.77L109.06-32.77Q106.37-30.53 102.91-30.53L102.91-30.53L102.91-30.53Q101.25-30.53 98.56-30.98L98.56-30.98L98.56-30.98Q95.42-21.12 95.42-14.27L95.42-14.27L95.42-14.27Q95.42-7.42 98.88-3.84L98.88-3.84L98.88-3.84Q97.28-0.96 94.91 0.16L94.91 0.16L94.91 0.16Q92.54 1.28 88.99 1.28L88.99 1.28L88.99 1.28Q85.44 1.28 83.23-0.67L83.23-0.67L83.23-0.67Q81.02-2.62 81.02-6.66L81.02-6.66L81.02-6.66Q81.02-11.33 83.58-19.01L83.58-19.01L83.58-19.01Q86.14-26.62 89.98-32.45L89.98-32.45L89.98-32.45Q88.13-32.64 86.21-32.64L86.21-32.64L86.21-32.64Q82.24-32.64 81.60-31.17ZM146.69-4.80L146.69-4.80L146.69-4.80Q146.69-9.28 148.48-18.24L148.48-18.24L139.01-18.24L135.49 0L122.11 0L130.24-42.24L143.74-42.24L140.03-23.36L149.50-23.36L153.02-42.24L166.53-42.24L166.53-42.24Q165.63-37.50 164.48-32.19L164.48-32.19L162.30-21.76L162.30-21.76Q159.87-9.60 159.87-4.29L159.87-4.29L159.87-4.29Q159.87-2.11 160.58-0.90L160.58-0.90L160.58-0.90Q157.38 1.28 153.63 1.28L153.63 1.28L153.63 1.28Q149.89 1.28 148.29-0.51L148.29-0.51L148.29-0.51Q146.69-2.30 146.69-4.80ZM182.02 1.28L182.02 1.28L182.02 1.28Q167.94 1.28 167.94-11.97L167.94-11.97L167.94-11.97Q167.94-21.38 173.12-27.46L173.12-27.46L173.12-27.46Q178.62-33.92 188.16-33.92L188.16-33.92L188.16-33.92Q195.07-33.92 198.59-30.72L198.59-30.72L198.59-30.72Q202.11-27.52 202.11-20.80L202.11-20.80L202.11-20.80Q202.11-10.56 196.61-4.61L196.61-4.61L196.61-4.61Q191.23 1.28 182.02 1.28ZM183.68-26.56L183.68-26.56L183.68-26.56Q182.91-24.83 182.30-22.24L182.30-22.24L182.30-22.24Q181.70-19.65 180.93-15.55L180.93-15.55L180.93-15.55Q180.16-11.46 180.16-6.40L180.16-6.40L180.16-6.40Q180.16-4.74 180.70-3.65L180.70-3.65L180.70-3.65Q181.25-2.56 182.72-2.56L182.72-2.56L182.72-2.56Q184.19-2.56 185.12-3.26L185.12-3.26L185.12-3.26Q186.05-3.97 186.75-5.63L186.75-5.63L186.75-5.63Q188.03-8.58 189.06-14.05L189.06-14.05L189.06-14.05Q190.08-19.52 190.18-21.89L190.18-21.89L190.18-21.89Q190.27-24.26 190.27-26.02L190.27-26.02L190.27-26.02Q190.27-27.78 189.76-28.93L189.76-28.93L189.76-28.93Q189.25-30.08 187.81-30.08L187.81-30.08L187.81-30.08Q186.37-30.08 185.41-29.18L185.41-29.18L185.41-29.18Q184.45-28.29 183.68-26.56ZM206.91-6.40L206.91-6.40L206.91-6.40Q206.91-8.13 207.81-12.48L207.81-12.48L211.20-29.76L207.42-29.76L207.68-31.68L207.68-31.68Q215.36-33.98 222.78-39.62L222.78-39.62L225.86-39.62L224.32-32.64L229.31-32.64L228.74-29.76L223.81-29.76L220.54-12.48L220.54-12.48Q219.71-8.51 219.71-7.17L219.71-7.17L219.71-7.17Q219.71-4.10 222.40-3.46L222.40-3.46L222.40-3.46Q221.76-1.28 219.46 0L219.46 0L219.46 0Q217.15 1.28 213.89 1.28L213.89 1.28L213.89 1.28Q210.62 1.28 208.77-0.77L208.77-0.77L208.77-0.77Q206.91-2.82 206.91-6.40ZM254.66-10.82L254.66-10.82L254.66-10.82Q256.26-9.73 256.26-7.33L256.26-7.33L256.26-7.33Q256.26-4.93 255.04-3.39L255.04-3.39L255.04-3.39Q253.82-1.86 251.84-0.83L251.84-0.83L251.84-0.83Q247.74 1.28 243.33 1.28L243.33 1.28L243.33 1.28Q238.91 1.28 236.32 0.32L236.32 0.32L236.32 0.32Q233.73-0.64 232-2.43L232-2.43L232-2.43Q228.61-5.82 228.61-12.03L228.61-12.03L228.61-12.03Q228.61-21.70 233.86-27.58L233.86-27.58L233.86-27.58Q239.49-33.92 249.28-33.92L249.28-33.92L249.28-33.92Q255.36-33.92 258.37-31.36L258.37-31.36L258.37-31.36Q260.61-29.44 260.61-26.30L260.61-26.30L260.61-26.30Q260.61-15.04 241.15-15.04L241.15-15.04L241.15-15.04Q240.90-13.38 240.90-11.97L240.90-11.97L240.90-11.97Q240.90-9.02 242.21-7.90L242.21-7.90L242.21-7.90Q243.52-6.78 245.95-6.78L245.95-6.78L245.95-6.78Q248.38-6.78 250.98-7.90L250.98-7.90L250.98-7.90Q253.57-9.02 254.66-10.82ZM241.60-17.79L241.60-17.79L241.60-17.79Q246.14-17.79 248.77-20.61L248.77-20.61L248.77-20.61Q251.39-23.30 251.39-27.58L251.39-27.58L251.39-27.58Q251.39-29.06 250.85-29.86L250.85-29.86L250.85-29.86Q250.30-30.66 249.22-30.66L249.22-30.66L249.22-30.66Q248.13-30.66 247.20-30.24L247.20-30.24L247.20-30.24Q246.27-29.82 245.31-28.42L245.31-28.42L245.31-28.42Q242.94-25.22 241.60-17.79ZM278.08-3.52L278.08-3.52L278.08-3.52Q276.10 1.28 269.76 1.28L269.76 1.28L269.76 1.28Q266.56 1.28 264.51-0.96L264.51-0.96L264.51-0.96Q262.85-2.82 262.85-4.93L262.85-4.93L262.85-4.93Q262.85-9.73 265.09-20.22L265.09-20.22L269.76-44.80L282.75-46.08L276.54-13.70L276.54-13.70Q275.46-8.96 275.46-7.30L275.46-7.30L275.46-7.30Q275.46-3.65 278.08-3.52Z" fill="url(#editing-shiny-gradient)"/></g></g><g filter="url(#editing-shiny2)"><g transform="translate(109.06726559996605, 98.68000793457031)"><path d="M30.21-33.92L30.21-33.92L30.21-33.92Q25.02-33.92 21.25-35.65L21.25-35.65L19.20-25.28L31.55-25.28L31.55-25.28Q31.55-21.89 29.86-19.74L29.86-19.74L29.86-19.74Q28.16-17.60 25.09-17.60L25.09-17.60L25.09-17.60Q21.76-17.60 18.69-18.82L18.69-18.82L18.69-18.82Q18.05-19.07 17.98-19.14L17.98-19.14L14.34 0L0.38 0L8.51-42.24L37.06-42.24L37.06-42.24Q37.06-38.34 35.23-36.13L35.23-36.13L35.23-36.13Q33.41-33.92 30.21-33.92ZM60.48-42.69L60.48-42.69L60.48-42.69Q76.16-42.69 76.16-31.62L76.16-31.62L76.16-31.62Q76.16-25.54 72.26-21.89L72.26-21.89L72.26-21.89Q68.42-18.24 61.70-18.24L61.70-18.24L61.70-18.24Q58.56-18.24 56.13-20.03L56.13-20.03L56.13-20.03Q54.98-20.80 54.21-21.82L54.21-21.82L54.21-21.82Q58.88-21.82 61.34-24.67L61.34-24.67L61.34-24.67Q63.81-27.52 63.81-33.09L63.81-33.09L63.81-33.09Q63.81-38.66 58.30-38.66L58.30-38.66L56.77-38.66L56.77-38.66Q56.38-38.66 56.06-38.59L56.06-38.59L48.70 0L34.82 0L42.69-41.92L42.69-41.92Q49.54-42.56 53.50-42.62L53.50-42.62L53.50-42.62Q57.47-42.69 60.48-42.69ZM81.60-31.17L81.60-31.17L81.60-31.17Q79.42-32.83 79.42-36.38L79.42-36.38L79.42-36.38Q79.42-39.94 81.76-41.79L81.76-41.79L81.76-41.79Q84.10-43.65 88.13-43.65L88.13-43.65L88.13-43.65Q90.69-43.65 96.77-42.75L96.77-42.75L101.12-42.11L101.12-42.11Q103.30-41.86 105.57-41.86L105.57-41.86L105.57-41.86Q107.84-41.86 109.38-42.82L109.38-42.82L109.38-42.82Q111.68-40.77 111.68-37.82L111.68-37.82L111.68-37.82Q111.68-34.88 109.06-32.77L109.06-32.77L109.06-32.77Q106.37-30.53 102.91-30.53L102.91-30.53L102.91-30.53Q101.25-30.53 98.56-30.98L98.56-30.98L98.56-30.98Q95.42-21.12 95.42-14.27L95.42-14.27L95.42-14.27Q95.42-7.42 98.88-3.84L98.88-3.84L98.88-3.84Q97.28-0.96 94.91 0.16L94.91 0.16L94.91 0.16Q92.54 1.28 88.99 1.28L88.99 1.28L88.99 1.28Q85.44 1.28 83.23-0.67L83.23-0.67L83.23-0.67Q81.02-2.62 81.02-6.66L81.02-6.66L81.02-6.66Q81.02-11.33 83.58-19.01L83.58-19.01L83.58-19.01Q86.14-26.62 89.98-32.45L89.98-32.45L89.98-32.45Q88.13-32.64 86.21-32.64L86.21-32.64L86.21-32.64Q82.24-32.64 81.60-31.17ZM146.69-4.80L146.69-4.80L146.69-4.80Q146.69-9.28 148.48-18.24L148.48-18.24L139.01-18.24L135.49 0L122.11 0L130.24-42.24L143.74-42.24L140.03-23.36L149.50-23.36L153.02-42.24L166.53-42.24L166.53-42.24Q165.63-37.50 164.48-32.19L164.48-32.19L162.30-21.76L162.30-21.76Q159.87-9.60 159.87-4.29L159.87-4.29L159.87-4.29Q159.87-2.11 160.58-0.90L160.58-0.90L160.58-0.90Q157.38 1.28 153.63 1.28L153.63 1.28L153.63 1.28Q149.89 1.28 148.29-0.51L148.29-0.51L148.29-0.51Q146.69-2.30 146.69-4.80ZM182.02 1.28L182.02 1.28L182.02 1.28Q167.94 1.28 167.94-11.97L167.94-11.97L167.94-11.97Q167.94-21.38 173.12-27.46L173.12-27.46L173.12-27.46Q178.62-33.92 188.16-33.92L188.16-33.92L188.16-33.92Q195.07-33.92 198.59-30.72L198.59-30.72L198.59-30.72Q202.11-27.52 202.11-20.80L202.11-20.80L202.11-20.80Q202.11-10.56 196.61-4.61L196.61-4.61L196.61-4.61Q191.23 1.28 182.02 1.28ZM183.68-26.56L183.68-26.56L183.68-26.56Q182.91-24.83 182.30-22.24L182.30-22.24L182.30-22.24Q181.70-19.65 180.93-15.55L180.93-15.55L180.93-15.55Q180.16-11.46 180.16-6.40L180.16-6.40L180.16-6.40Q180.16-4.74 180.70-3.65L180.70-3.65L180.70-3.65Q181.25-2.56 182.72-2.56L182.72-2.56L182.72-2.56Q184.19-2.56 185.12-3.26L185.12-3.26L185.12-3.26Q186.05-3.97 186.75-5.63L186.75-5.63L186.75-5.63Q188.03-8.58 189.06-14.05L189.06-14.05L189.06-14.05Q190.08-19.52 190.18-21.89L190.18-21.89L190.18-21.89Q190.27-24.26 190.27-26.02L190.27-26.02L190.27-26.02Q190.27-27.78 189.76-28.93L189.76-28.93L189.76-28.93Q189.25-30.08 187.81-30.08L187.81-30.08L187.81-30.08Q186.37-30.08 185.41-29.18L185.41-29.18L185.41-29.18Q184.45-28.29 183.68-26.56ZM206.91-6.40L206.91-6.40L206.91-6.40Q206.91-8.13 207.81-12.48L207.81-12.48L211.20-29.76L207.42-29.76L207.68-31.68L207.68-31.68Q215.36-33.98 222.78-39.62L222.78-39.62L225.86-39.62L224.32-32.64L229.31-32.64L228.74-29.76L223.81-29.76L220.54-12.48L220.54-12.48Q219.71-8.51 219.71-7.17L219.71-7.17L219.71-7.17Q219.71-4.10 222.40-3.46L222.40-3.46L222.40-3.46Q221.76-1.28 219.46 0L219.46 0L219.46 0Q217.15 1.28 213.89 1.28L213.89 1.28L213.89 1.28Q210.62 1.28 208.77-0.77L208.77-0.77L208.77-0.77Q206.91-2.82 206.91-6.40ZM254.66-10.82L254.66-10.82L254.66-10.82Q256.26-9.73 256.26-7.33L256.26-7.33L256.26-7.33Q256.26-4.93 255.04-3.39L255.04-3.39L255.04-3.39Q253.82-1.86 251.84-0.83L251.84-0.83L251.84-0.83Q247.74 1.28 243.33 1.28L243.33 1.28L243.33 1.28Q238.91 1.28 236.32 0.32L236.32 0.32L236.32 0.32Q233.73-0.64 232-2.43L232-2.43L232-2.43Q228.61-5.82 228.61-12.03L228.61-12.03L228.61-12.03Q228.61-21.70 233.86-27.58L233.86-27.58L233.86-27.58Q239.49-33.92 249.28-33.92L249.28-33.92L249.28-33.92Q255.36-33.92 258.37-31.36L258.37-31.36L258.37-31.36Q260.61-29.44 260.61-26.30L260.61-26.30L260.61-26.30Q260.61-15.04 241.15-15.04L241.15-15.04L241.15-15.04Q240.90-13.38 240.90-11.97L240.90-11.97L240.90-11.97Q240.90-9.02 242.21-7.90L242.21-7.90L242.21-7.90Q243.52-6.78 245.95-6.78L245.95-6.78L245.95-6.78Q248.38-6.78 250.98-7.90L250.98-7.90L250.98-7.90Q253.57-9.02 254.66-10.82ZM241.60-17.79L241.60-17.79L241.60-17.79Q246.14-17.79 248.77-20.61L248.77-20.61L248.77-20.61Q251.39-23.30 251.39-27.58L251.39-27.58L251.39-27.58Q251.39-29.06 250.85-29.86L250.85-29.86L250.85-29.86Q250.30-30.66 249.22-30.66L249.22-30.66L249.22-30.66Q248.13-30.66 247.20-30.24L247.20-30.24L247.20-30.24Q246.27-29.82 245.31-28.42L245.31-28.42L245.31-28.42Q242.94-25.22 241.60-17.79ZM278.08-3.52L278.08-3.52L278.08-3.52Q276.10 1.28 269.76 1.28L269.76 1.28L269.76 1.28Q266.56 1.28 264.51-0.96L264.51-0.96L264.51-0.96Q262.85-2.82 262.85-4.93L262.85-4.93L262.85-4.93Q262.85-9.73 265.09-20.22L265.09-20.22L269.76-44.80L282.75-46.08L276.54-13.70L276.54-13.70Q275.46-8.96 275.46-7.30L275.46-7.30L275.46-7.30Q275.46-3.65 278.08-3.52Z" fill="url(#editing-shiny-gradient2)"/></g></g><style>text {
  font-size: 64px;
  font-family: Arial Black;
  dominant-baseline: central;
  text-anchor: middle;
}</style></svg>
